<?xml version="1.0" standalone="no"?>
<!DOCTYPE svg PUBLIC "-//W3C//DTD SVG 20010904//EN"
 "http://www.w3.org/TR/2001/REC-SVG-20010904/DTD/svg10.dtd">
<svg version="1.0" xmlns="http://www.w3.org/2000/svg"
 width="512.000000pt" height="512.000000pt" viewBox="0 0 512.000000 512.000000"
 preserveAspectRatio="xMidYMid meet">
<metadata>
Created by potrace 1.14, written by Peter Selinger 2001-2017
</metadata>
<g transform="translate(0.000000,512.000000) scale(0.100000,-0.100000)"
fill="#000000" stroke="none">
<path d="M3135 4299 c-93 -72 -207 -157 -252 -190 -82 -60 -93 -72 -73 -84 27
-17 520 360 520 397 0 22 -39 -3 -195 -123z"/>
<path d="M2635 4350 c-16 -22 -37 -42 -46 -45 -10 -3 -53 -46 -97 -95 -62 -68
-79 -94 -75 -110 3 -11 9 -20 14 -18 8 3 240 275 254 298 3 5 0 10 -7 10 -7
-1 -26 -19 -43 -40z"/>
<path d="M1008 4293 c-38 -10 -30 -58 14 -82 21 -11 29 -10 61 9 45 26 61 52
45 68 -12 12 -85 14 -120 5z m54 -45 c-9 -9 -15 -9 -24 0 -9 9 -7 12 12 12 19
0 21 -3 12 -12z"/>
<path d="M1370 4224 c-119 -120 -258 -205 -417 -254 -81 -25 -128 -26 -142 -2
-10 16 -12 16 -26 -2 -8 -11 -27 -21 -42 -22 -27 -3 -64 -38 -106 -98 -20 -29
-47 -35 -47 -11 0 9 7 32 15 52 18 41 19 53 5 53 -16 0 -50 -77 -50 -115 0
-43 16 -51 62 -32 24 10 43 29 59 58 21 37 30 44 59 47 19 1 42 5 50 9 8 3 31
5 50 4 79 -4 253 65 391 154 69 44 239 205 239 226 0 24 -32 3 -100 -67z"/>
<path d="M2163 4254 c-9 -23 11 -38 26 -20 13 16 7 36 -10 36 -5 0 -12 -7 -16
-16z"/>
<path d="M4385 4209 c-64 -46 -150 -63 -285 -55 -336 19 -354 19 -440 2 -175
-35 -301 -119 -449 -295 -28 -35 -51 -65 -49 -66 2 -2 48 10 103 28 l100 31
285 1 c381 2 448 17 595 128 33 25 78 70 101 99 43 56 100 159 87 157 -5 0
-26 -14 -48 -30z"/>
<path d="M1991 4177 c-55 -23 -87 -56 -40 -42 51 15 109 44 109 54 0 15 -7 14
-69 -12z"/>
<path d="M815 4139 c-54 -22 -83 -44 -72 -55 17 -17 154 47 142 66 -8 13 -11
13 -70 -11z"/>
<path d="M1440 4091 c-30 -15 -56 -35 -58 -44 -2 -9 0 -17 5 -17 17 1 127 66
131 78 6 19 -18 14 -78 -17z"/>
<path d="M642 4063 c-12 -22 -5 -43 13 -43 17 0 34 30 28 48 -7 18 -31 15 -41
-5z"/>
<path d="M326 4052 c-2 -4 2 -32 10 -62 8 -30 14 -76 14 -102 0 -51 12 -62 31
-27 11 22 9 53 -12 149 -10 46 -29 64 -43 42z"/>
<path d="M1719 4021 c-18 -23 -39 -41 -47 -41 -8 0 -30 -11 -48 -25 -18 -14
-38 -25 -45 -25 -6 0 -34 -21 -61 -46 -57 -53 -118 -83 -170 -84 -74 0 -85 20
-43 76 47 61 25 76 -25 17 -45 -55 -49 -81 -16 -110 54 -46 156 -23 251 57 37
30 66 47 77 44 10 -3 24 6 37 25 11 16 32 32 45 35 33 8 103 93 89 107 -7 7
-21 -2 -44 -30z"/>
<path d="M2104 4025 c-10 -15 -26 -25 -39 -25 -17 0 -38 -19 -76 -67 -58 -74
-69 -84 -81 -77 -21 13 -5 53 37 94 45 44 54 60 35 60 -18 0 -87 -69 -100
-100 -19 -45 -6 -80 29 -80 23 0 37 12 81 70 39 54 56 69 70 65 13 -4 27 5 49
32 17 21 31 41 31 45 0 17 -20 7 -36 -17z"/>
<path d="M2181 3998 c-7 -24 -24 -62 -37 -85 -25 -44 -20 -57 9 -25 22 24 57
103 57 130 0 36 -16 25 -29 -20z"/>
<path d="M2353 4008 c-6 -7 -16 -30 -22 -50 -7 -20 -18 -42 -26 -48 -8 -7 -12
-16 -9 -22 3 -5 11 -4 20 3 7 6 21 9 30 5 19 -7 69 18 77 39 12 29 -4 47 -35
41 -26 -5 -28 -4 -22 19 7 27 2 32 -13 13z m34 -75 c-9 -9 -20 -14 -24 -10 -3
4 2 14 13 21 25 19 33 10 11 -11z"/>
<path d="M2536 3969 c-32 -25 -66 -89 -66 -123 0 -13 12 -38 26 -55 49 -58
128 -37 275 73 41 31 77 56 80 56 4 0 9 -7 13 -15 9 -25 25 -17 43 20 18 38
14 52 -14 40 -10 -4 -27 -8 -38 -9 -11 -1 -54 -28 -95 -59 -124 -95 -197 -119
-233 -79 -28 31 -21 68 23 116 22 24 40 46 40 50 0 13 -28 5 -54 -15z"/>
<path d="M1045 3948 c-2 -7 -9 -35 -15 -62 -6 -26 -18 -62 -26 -78 -9 -16 -14
-32 -11 -34 11 -11 36 11 51 44 18 42 36 129 28 137 -9 9 -22 5 -27 -7z"/>
<path d="M2209 3904 c-18 -20 -54 -45 -78 -56 -49 -22 -45 -46 5 -28 29 11
124 97 124 112 0 16 -17 7 -51 -28z"/>
<path d="M1781 3891 c-7 -24 -25 -50 -44 -65 -23 -18 -29 -28 -21 -36 23 -23
104 70 104 120 0 35 -26 22 -39 -19z"/>
<path d="M1127 3864 c-4 -4 -7 -17 -7 -29 0 -27 -15 -41 -53 -50 -32 -8 -43
-23 -29 -37 15 -15 78 9 102 40 12 14 20 37 18 51 -3 25 -19 37 -31 25z"/>
<path d="M1647 3854 c-4 -4 -7 -17 -7 -30 0 -16 -13 -30 -45 -48 -25 -15 -45
-31 -45 -36 0 -28 84 9 121 53 11 12 18 31 16 42 -2 20 -27 32 -40 19z"/>
<path d="M332 3776 c-50 -18 -57 -38 -23 -64 24 -17 31 -19 40 -8 6 7 9 20 6
28 -4 10 1 17 14 21 22 5 29 38 9 36 -7 0 -28 -6 -46 -13z"/>
<path d="M2780 3743 c-19 -9 -53 -19 -75 -22 -27 -4 -41 -12 -43 -23 -5 -28
55 -23 118 10 81 40 80 71 0 35z"/>
<path d="M3895 3672 c-85 -45 -183 -139 -218 -209 -71 -140 -94 -329 -81 -683
15 -399 10 -621 -14 -710 -11 -41 -24 -84 -28 -94 -12 -32 110 60 175 130 107
117 166 248 192 424 14 95 7 419 -12 605 -6 60 -9 180 -7 265 4 161 23 246 64
291 25 28 7 23 -71 -19z"/>
<path d="M1839 3492 c12 -17 34 -57 49 -89 l27 -58 1 -330 c1 -200 6 -357 13
-398 27 -159 99 -270 213 -328 106 -54 197 -55 394 -5 l94 24 0 -297 c0 -314
-10 -420 -50 -535 -11 -33 -19 -61 -17 -62 2 -2 40 26 85 61 134 106 209 217
257 380 54 185 57 767 5 920 -58 171 -212 280 -945 671 -71 38 -134 71 -139
73 -5 2 1 -10 13 -27z m509 -342 c262 -134 299 -212 286 -588 l-7 -192 -64
-20 c-142 -44 -259 -7 -312 98 -38 76 -42 132 -35 455 4 169 9 307 11 307 3 0
57 -27 121 -60z"/>
<path d="M870 3446 c0 -17 62 -127 103 -183 99 -134 188 -178 390 -194 210
-16 286 -43 366 -128 l34 -36 -7 56 c-13 117 -78 248 -156 309 -21 17 -64 42
-95 56 -52 24 -77 28 -279 40 -231 13 -289 25 -333 66 -13 12 -23 18 -23 14z"/>
<path d="M3401 3320 c-180 -99 -259 -211 -298 -422 -15 -79 -17 -138 -13 -403
8 -595 5 -701 -18 -785 -11 -41 -24 -84 -28 -94 -7 -19 -7 -19 27 0 19 10 75
60 125 109 79 78 98 104 137 185 25 52 53 124 62 160 23 88 31 372 15 560 -18
225 -24 477 -11 545 6 33 24 86 39 118 16 31 26 57 23 57 -3 0 -30 -14 -60
-30z"/>
<path d="M1712 2852 c-63 -63 -128 -90 -253 -102 -292 -29 -335 -43 -434 -145
-53 -54 -131 -172 -151 -230 -7 -19 -6 -19 17 2 48 44 128 59 364 68 170 7
206 14 288 58 67 35 126 98 162 171 29 60 58 167 53 199 -3 20 -6 19 -46 -21z"/>
<path d="M1893 2270 c-76 -17 -117 -72 -116 -154 2 -149 205 -202 283 -74 48
79 5 199 -80 223 -45 12 -55 13 -87 5z"/>
<path d="M1418 2123 c39 -54 53 -130 62 -333 9 -203 17 -245 65 -325 62 -108
233 -205 358 -205 l30 0 -47 50 c-59 63 -85 124 -96 225 -5 44 -13 121 -19
170 -5 50 -19 116 -31 148 -37 98 -145 198 -299 276 l-44 23 21 -29z"/>
<path d="M2414 2112 c-150 -80 -234 -162 -274 -269 -15 -40 -26 -107 -36 -217
-12 -138 -18 -168 -43 -222 -16 -34 -47 -80 -70 -103 l-41 -41 33 0 c53 0 162
35 223 71 135 81 191 198 195 407 4 222 26 341 71 389 28 30 26 29 -58 -15z"/>
<path d="M4134 1838 c-24 -25 -30 -38 -24 -53 9 -24 4 -36 -14 -29 -7 3 -87
-73 -189 -180 -136 -141 -177 -190 -177 -210 0 -23 -2 -25 -26 -16 -20 8 -29
6 -42 -6 -15 -15 -14 -18 13 -42 17 -14 162 -147 323 -296 162 -149 297 -272
301 -274 6 -2 209 205 488 499 l63 65 -289 282 -289 282 -53 6 c-52 6 -55 4
-85 -28z m641 -532 c12 -12 11 -16 -4 -30 -16 -15 -19 -15 -31 -1 -10 12 -10
18 0 30 15 18 18 19 35 1z"/>
<path d="M380 1284 c0 -17 148 -199 216 -265 185 -178 330 -243 634 -286 153
-21 762 -24 1070 -4 763 48 958 55 1170 41 163 -11 375 -37 487 -59 l81 -17
-13 26 c-29 57 -110 152 -170 202 -157 130 -350 210 -625 260 -214 38 -457 36
-1840 -13 -559 -20 -777 2 -968 100 -23 12 -42 19 -42 15z m1355 -306 c21 -51
39 -99 42 -105 3 -8 -4 -13 -19 -13 -17 0 -29 8 -36 25 -9 20 -19 25 -47 25
-28 0 -38 -5 -47 -25 -14 -30 -65 -38 -53 -7 4 9 17 44 30 77 13 33 28 72 34
88 7 19 18 27 35 27 21 0 29 -12 61 -92z m291 67 c20 -30 11 -75 -16 -82 -17
-5 -16 -8 11 -45 35 -50 36 -58 5 -58 -17 0 -31 11 -46 35 -19 31 -47 55 -64
55 -3 0 -6 -20 -6 -45 0 -38 -3 -45 -20 -45 -19 0 -20 7 -20 105 l0 105 70 0
c63 0 71 -2 86 -25z m162 -27 c11 -29 22 -62 24 -73 3 -13 13 5 28 53 21 62
27 72 47 72 13 0 23 -3 23 -7 0 -5 -15 -51 -34 -103 -29 -83 -37 -95 -59 -98
-23 -3 -27 3 -57 90 -17 51 -34 99 -37 106 -3 8 4 12 20 12 22 0 29 -8 45 -52z
m358 -45 c21 -54 41 -101 42 -105 2 -5 -8 -8 -22 -8 -19 0 -29 7 -36 25 -8 21
-16 25 -49 25 -33 0 -40 -4 -45 -25 -5 -18 -13 -25 -31 -25 -14 0 -25 2 -25 5
0 7 68 184 76 196 3 5 15 9 28 9 19 0 28 -14 62 -97z m210 37 c20 -33 38 -60
39 -60 1 0 2 26 2 58 0 51 2 57 21 60 21 3 22 1 22 -102 0 -100 -1 -106 -20
-106 -14 0 -33 20 -60 62 l-40 61 0 -61 c0 -59 -1 -62 -25 -62 l-25 0 0 105
c0 105 0 105 24 105 19 0 33 -13 62 -60z m339 35 c19 -18 25 -35 25 -69 0 -86
-31 -116 -120 -116 l-50 0 0 105 0 105 60 0 c51 0 65 -4 85 -25z"/>
<path d="M1662 982 c-10 -30 -10 -32 14 -32 20 0 23 3 16 18 -5 9 -11 24 -14
32 -3 9 -9 2 -16 -18z"/>
<path d="M1910 1010 c0 -18 5 -21 38 -18 25 2 37 8 37 18 0 10 -12 16 -37 18
-33 3 -38 0 -38 -18z"/>
<path d="M2471 987 c-14 -37 -14 -37 9 -37 21 0 24 12 10 45 -7 19 -9 18 -19
-8z"/>
<path d="M2998 965 c4 -69 12 -77 53 -55 15 8 19 21 19 59 0 51 -9 61 -53 61
-21 0 -22 -4 -19 -65z"/>
</g>
</svg>
