<?xml version="1.0" encoding="UTF-8"?> <svg xmlns="http://www.w3.org/2000/svg" width="134" height="22" viewBox="0 0 134 22" fill="none"><rect width="65" height="22" fill="white"></rect><rect x="69" width="65" height="22" fill="white"></rect><path d="M10.4997 20C10.0863 19.9977 9.67551 19.9351 9.28026 19.814C8.84683 19.681 8.42788 19.5047 8.02977 19.2878C7.48535 19.0079 6.96526 18.683 6.47493 18.3165C6.0336 17.9708 5.61648 17.5953 5.2265 17.1926C4.69827 16.6644 4.20552 16.124 3.80032 15.6277C3.35217 15.0994 2.96522 14.5222 2.64684 13.9069L2.61992 13.8507V13.849L2.61371 13.836V13.833V13.83L2.58236 13.7629L2.58029 13.7585L2.57822 13.754L2.54864 13.6893L2.5448 13.681V13.6786L2.52291 13.6301L2.51611 13.615L2.51108 13.6035L2.50694 13.5943V13.5925L2.48417 13.5408L2.4818 13.5349L2.47559 13.5292L2.44868 13.4665L2.44424 13.4562L2.41792 13.3926L2.41614 13.3885L2.41437 13.3843L2.38952 13.3222L2.38657 13.3148L2.36261 13.2536V13.2515L2.35935 13.2432L2.33658 13.1841L2.33451 13.1782L2.33185 13.1714C2.32475 13.1524 2.31795 13.1335 2.31085 13.114V13.1101L2.30671 13.0986C2.29872 13.0767 2.29251 13.0587 2.28689 13.0427V13.0392L2.28246 13.0259L2.25939 12.9673L2.25377 12.9501L2.23572 12.8957L2.23277 12.8871L2.2304 12.8786C2.22389 12.8585 2.21857 12.841 2.21354 12.825L2.20851 12.8082L2.19402 12.7603L2.19136 12.7511V12.7493L2.1884 12.739L2.17361 12.6916L2.17125 12.6837L2.16888 12.6715C2.16385 12.6529 2.15942 12.6366 2.15528 12.6212L2.15232 12.6124L2.14966 12.6026C2.14581 12.5875 2.14138 12.5713 2.13694 12.5529L2.1325 12.5352V12.531C2.12925 12.5177 2.12481 12.5015 2.12067 12.4825L2.11446 12.4592C2.11091 12.4447 2.10736 12.4296 2.10352 12.4113L2.10115 12.4L2.09849 12.3882C2.09494 12.3722 2.09169 12.3562 2.08843 12.3406L2.08488 12.3187C2.08252 12.3074 2.08045 12.2962 2.07808 12.285V12.279V12.274V12.2722L2.07365 12.2486V12.2456L2.06743 12.211C2.06536 12.2001 2.06359 12.1891 2.06181 12.1782L2.0559 12.1421C2.05413 12.1318 2.05265 12.1214 2.05087 12.1125C2.0491 12.1037 2.04703 12.0868 2.04496 12.0738L2.04318 12.0611L2.04141 12.0483C2.03934 12.0333 2.03727 12.0188 2.03549 12.0037L2.02869 11.9806V11.9765C2.02573 11.9593 2.02573 11.9451 2.02277 11.9321C2.02277 11.9241 2.021 11.9161 2.02011 11.9082V11.9052C2.01863 11.891 2.01715 11.8756 2.01568 11.8614C2.01568 11.8531 2.0142 11.8446 2.01331 11.8363V11.8345C2.01213 11.8223 2.01104 11.8101 2.01006 11.7978C2.01006 11.7869 2.00828 11.7762 2.00769 11.7653C2.0071 11.7544 2.00621 11.7437 2.00532 11.7331C2.00532 11.7209 2.00384 11.7088 2.00325 11.6964C2.00266 11.684 2.00325 11.676 2.00148 11.6668C1.9997 11.6576 2.00148 11.6423 2 11.6301V11.6284C2 11.618 2 11.6077 2 11.5973C2 11.587 2 11.581 2 11.5731V11.5612C2 11.55 2 11.5384 2 11.5272C2 11.516 2 11.5089 2 11.4997V11.4308C2 11.4166 2 11.4024 2 11.3882C2 11.3781 2 11.3681 2 11.3586C2 11.3492 2 11.3335 2 11.3208C2 11.3137 2 11.3069 2 11.2998V11.2894C2 11.2734 2 11.2598 2.00207 11.2462C2.00207 11.2382 2.00207 11.23 2.00207 11.222C2.00207 11.209 2.00355 11.1951 2.00473 11.1785C2.00473 11.1708 2.00473 11.1628 2.00651 11.1551C2.00651 11.1403 2.00887 11.1256 2.01006 11.1108V11.0963V11.0859C2.01144 11.0711 2.01292 11.0564 2.01449 11.0416L2.01686 11.0182V11.0135C2.01686 11.0002 2.01982 10.9857 2.02218 10.9685C2.02218 10.9632 2.02218 10.9579 2.02425 10.9525V10.9448V10.9419C2.02603 10.9271 2.0281 10.9123 2.03017 10.8975L2.03313 10.8765C2.03549 10.8606 2.03786 10.8446 2.04022 10.8289L2.04318 10.8112V10.8085C2.04555 10.7937 2.04821 10.7774 2.05146 10.7588L2.05501 10.7381C2.05797 10.721 2.06122 10.7035 2.06448 10.6861L2.06714 10.6724V10.6651C2.07039 10.6479 2.07394 10.6302 2.07749 10.613L2.08045 10.5982V10.5955C2.084 10.5784 2.08784 10.5606 2.09169 10.5432V10.5376L2.09405 10.5266C2.0976 10.5104 2.10174 10.4932 2.10648 10.4731L2.11032 10.4574C2.11446 10.4406 2.1189 10.4222 2.12452 10.3998L2.12659 10.3918L2.12836 10.3853C2.13339 10.3654 2.13871 10.3453 2.14463 10.3234L2.14611 10.3178L2.14788 10.3116C2.1538 10.29 2.15912 10.2708 2.16415 10.2525L2.16799 10.2389C2.17302 10.2214 2.17923 10.2007 2.18544 10.1797V10.1773L2.1887 10.1667C2.19521 10.1454 2.20171 10.1247 2.20763 10.1058L2.21088 10.0954C2.21739 10.075 2.22449 10.0531 2.23277 10.0283L2.23454 10.0227V10.0206C2.24194 9.9981 2.24992 9.97533 2.25702 9.95433L2.26057 9.94457C2.26796 9.92298 2.27595 9.90109 2.28334 9.88068L2.28512 9.87595L2.28689 9.87122C2.29606 9.84638 2.30375 9.82597 2.31085 9.80645L2.31381 9.79846C2.32238 9.77628 2.33126 9.75321 2.34043 9.72984L2.3422 9.72541C2.35107 9.70263 2.36083 9.67868 2.37178 9.65206L2.37385 9.64703C2.3839 9.62248 2.39337 9.59941 2.40342 9.57693L2.40668 9.56924C2.41525 9.54884 2.42472 9.52695 2.43625 9.50063L2.4398 9.49264C2.44868 9.47253 2.45844 9.45005 2.47115 9.42225L2.47382 9.41633C2.48713 9.38676 2.49836 9.3625 2.50872 9.34032C3.12509 8.01529 4.0467 7.09251 4.93961 6.20048L4.95736 6.18273C5.47672 5.66337 5.96148 5.22001 6.43914 4.82753C6.98544 4.37383 7.56753 3.96503 8.17972 3.60514C8.52004 3.40263 8.88521 3.24515 9.26607 3.13664C9.59246 3.04642 9.92949 3.00046 10.2681 3C10.7235 3.00329 11.1753 3.08019 11.6062 3.22774C12.0184 3.36859 12.4174 3.54566 12.7984 3.75686C13.4069 4.08367 13.9908 4.45457 14.5452 4.86658C15.067 5.25527 15.5601 5.6812 16.0205 6.14103C16.501 6.62719 16.9409 7.15196 17.3357 7.71006C17.7046 8.20834 18.0091 8.75122 18.242 9.32583C18.3937 9.72767 18.5227 10.1378 18.6282 10.5541C18.7203 10.9161 18.772 11.287 18.7826 11.6603C18.7899 12.0261 18.7456 12.3911 18.651 12.7446C18.5396 13.149 18.3812 13.539 18.1792 13.9066C17.8916 14.4461 17.5549 14.9581 17.1736 15.436C16.7939 15.9052 16.3874 16.352 15.9563 16.7744C15.4905 17.2401 14.9998 17.6803 14.4863 18.0929C13.9489 18.5256 13.3853 18.9247 12.7987 19.2878C12.1154 19.7384 11.3181 19.9854 10.4997 20V20ZM11.7582 18.116C11.4169 18.3168 11.0483 18.4671 10.6639 18.562C11.0483 18.4671 11.4169 18.3169 11.7582 18.116V18.116ZM6.73727 17.4375C6.77306 17.4617 6.81003 17.4863 6.847 17.5102C6.80619 17.4836 6.7704 17.4597 6.73727 17.4375ZM5.48855 16.3955L5.55155 16.4567L5.48855 16.3955ZM6.09103 10.4403L6.07151 10.4826V10.4858L6.05406 10.5249L6.05228 10.5293L6.03572 10.5675V10.5695V10.5716L6.01945 10.6106V10.6133L6.00318 10.6538V10.6556L5.9884 10.6937V10.6964V10.6988L5.97509 10.7346L5.97331 10.739L5.96059 10.7745V10.7774V10.7798C5.95645 10.7911 5.95261 10.8032 5.94817 10.8165V10.8194C5.94314 10.8345 5.9393 10.8458 5.93604 10.8567L5.93427 10.8623L5.92392 10.8963L5.92185 10.9034C5.9185 10.9143 5.91524 10.9251 5.91209 10.936V10.9398V10.9437L5.90292 10.9762L5.88784 10.9857L5.88606 10.9928L5.87896 11.0194L5.87689 11.0274C5.87423 11.038 5.87157 11.0487 5.86891 11.0593L5.86684 11.0679L5.86003 11.0975L5.85826 11.1057L5.85589 11.117L5.85205 11.135V11.1398V11.1448L5.84702 11.1693V11.1741L5.8411 11.1894L5.83756 11.2084L5.83578 11.2184V11.2229V11.2291C5.8343 11.2382 5.83282 11.2471 5.83134 11.2563L5.82957 11.2675L5.82572 11.2941L5.82395 11.3054C5.82395 11.3143 5.82158 11.3228 5.8204 11.3317V11.3385V11.3453C5.8204 11.3536 5.81833 11.3619 5.81744 11.3702V11.3784V11.3858V11.3938C5.81744 11.3994 5.81744 11.4051 5.81596 11.4104V11.4243V11.4317C5.81596 11.4373 5.81596 11.4432 5.81596 11.4488C5.81596 11.4545 5.81596 11.4574 5.81596 11.4618C5.81596 11.4663 5.81596 11.4772 5.81449 11.4849C5.81449 11.4879 5.81449 11.4908 5.81449 11.4941V11.4994C5.81449 11.5071 5.81449 11.5148 5.81449 11.5228C5.81449 11.5308 5.81449 11.534 5.81449 11.5396C5.81449 11.5461 5.81449 11.5529 5.81449 11.5594V11.5781C5.81449 11.5855 5.81449 11.5929 5.81449 11.6003V11.6538C5.81449 11.66 5.81449 11.6665 5.81449 11.6727C5.81449 11.6789 5.81449 11.686 5.81449 11.6928V11.71C5.81449 11.7171 5.81449 11.7242 5.81449 11.7313V11.7399V11.7484C5.81449 11.7532 5.81449 11.7576 5.81449 11.7623V11.7694V11.7786V11.7875C5.81449 11.7934 5.81449 11.7996 5.81449 11.8055V11.8156V11.8265V11.8401C5.81449 11.8481 5.81596 11.8561 5.81685 11.8641C5.81685 11.8673 5.81685 11.8703 5.81685 11.8736V11.8789C5.81685 11.8872 5.81863 11.8951 5.81981 11.9031V11.9093V11.9176L5.82158 11.93L5.82306 11.9413L5.82513 11.9555V11.9626L5.8272 11.9762V11.9833V11.9919L5.82898 12.0019V12.0105V12.0191L5.83075 12.0288L5.8346 12.0489V12.0546L5.83667 12.0658V12.0714L5.83963 12.0868L5.84199 12.098C5.84377 12.1069 5.84564 12.1157 5.84761 12.1244L5.85027 12.1371L5.85441 12.1551L5.85619 12.1634V12.1696V12.1752L5.8624 12.2013L5.86536 12.2134C5.86802 12.224 5.87038 12.2329 5.87246 12.2409L5.87541 12.2521L5.88281 12.279L5.88429 12.2844L5.88576 12.2897C5.88813 12.2986 5.89079 12.3071 5.89316 12.316L5.89641 12.3276L5.9044 12.3545L5.90588 12.3595V12.3639L5.91505 12.3935V12.3979V12.4027L5.91978 12.4169L5.92481 12.432L5.92688 12.4379V12.4414L5.93457 12.4642L5.93693 12.471L5.94019 12.4802V12.4843L5.94935 12.5103L5.95231 12.5189L5.96414 12.5509L5.96592 12.5553V12.5582L5.97864 12.5917L5.981 12.5976L5.99431 12.6316L5.99609 12.6357L6.00792 12.6653L6.00999 12.6703V12.6724V12.6751C6.01472 12.6866 6.01975 12.6984 6.02477 12.7103L6.02655 12.7147L6.04134 12.7496L6.04341 12.7546L6.05494 12.781L6.0582 12.7884L6.06115 12.7949L6.07683 12.8301V12.8321L6.0786 12.836L6.09517 12.8721V12.875V12.8771L6.0999 12.8871L6.11262 12.9146V12.9164L6.11883 12.9291L6.13125 12.9555C6.51744 13.6303 6.99976 14.2453 7.56305 14.7812C8.01 15.2572 8.53707 15.6511 9.12025 15.9448C9.53735 16.1892 10.0091 16.3252 10.4923 16.3402C10.9469 16.3322 11.3898 16.195 11.7694 15.9448C12.4055 15.548 12.994 15.0796 13.5233 14.5487C14.0153 14.0851 14.432 13.5477 14.7584 12.9558C15.2435 12.0483 15.1506 11.3882 14.7933 10.4122C14.5037 9.7614 14.0957 9.1701 13.5902 8.66834C13.0614 8.14195 12.4584 7.69575 11.8005 7.34391C11.3742 7.08987 10.8916 6.94547 10.3959 6.92362C9.98859 6.92794 9.59003 7.04229 9.24241 7.25458C8.58546 7.65118 7.98363 8.13259 7.45243 8.68638L7.44297 8.69585C6.89018 9.19038 6.4324 9.78177 6.09221 10.4409L6.09103 10.4403ZM5.29778 16.2077L5.40751 16.3165L5.29778 16.2077ZM14.9297 15.56C14.8436 15.6487 14.7522 15.7416 14.6549 15.8392C14.541 15.953 14.4242 16.0663 14.3056 16.1778C14.4239 16.0663 14.5422 15.953 14.6549 15.8392C14.7528 15.741 14.8439 15.6481 14.9297 15.5594V15.56ZM16.6581 13.2151C16.6374 13.2557 16.6161 13.2968 16.5942 13.3379C16.4513 13.606 16.2943 13.8665 16.124 14.1181C16.2943 13.8665 16.4513 13.606 16.5942 13.3379C16.6164 13.2962 16.6365 13.2551 16.6584 13.2143L16.6581 13.2151ZM16.8539 9.94072C16.961 10.2701 17.0394 10.6082 17.0885 10.9511C17.0401 10.6078 16.9616 10.2694 16.8539 9.93984V9.94072ZM14.2583 6.13511C14.4139 6.27471 14.5648 6.41777 14.7111 6.56427C15.1304 6.98837 15.5142 7.44617 15.8587 7.93307C16.0083 8.14484 16.1435 8.35217 16.2603 8.54974C15.8259 7.82785 15.3057 7.16118 14.7111 6.56427C14.5652 6.41737 14.4143 6.27432 14.2583 6.13511ZM11.5618 4.30965C11.6698 4.3617 11.7807 4.41849 11.9004 4.48297C12.2326 4.66043 12.5594 4.85681 12.8714 5.06296C12.56 4.85593 12.2332 4.66191 11.9007 4.48297C11.7807 4.41967 11.67 4.36052 11.5618 4.30965ZM6.28978 12.4592C6.23401 12.3294 6.18697 12.196 6.149 12.0599C6.10139 11.891 6.07428 11.717 6.06825 11.5417C6.08469 11.8584 6.15991 12.1694 6.29008 12.4586L6.28978 12.4592Z" fill="#53B7D1"></path><path d="M28.5067 15.3464C28.8894 15.3464 29.2416 15.3388 29.5638 15.3236C29.886 15.3085 30.2184 15.2757 30.5609 15.2255C30.5907 15.2184 30.622 15.2189 30.6516 15.2268C30.6812 15.2346 30.7083 15.2497 30.7307 15.2706C30.7531 15.2916 30.7702 15.3177 30.7801 15.3467C30.79 15.3757 30.7926 15.4067 30.7876 15.4369V16.5697C30.7876 16.7004 30.7074 16.7912 30.5459 16.8415C30.1516 16.9635 29.7472 17.0494 29.3374 17.0982C28.9019 17.1567 28.4629 17.1869 28.0235 17.1887C27.3174 17.2081 26.6142 17.0901 25.9531 16.8412C25.4164 16.6294 24.9432 16.2831 24.5789 15.8356C24.2088 15.3614 23.9459 14.8125 23.8082 14.2269C23.639 13.52 23.5581 12.7948 23.5671 12.0679V11.3731C23.5583 10.6466 23.637 9.92172 23.8013 9.21402C23.9336 8.6294 24.1913 8.08053 24.5566 7.60536C24.9171 7.15698 25.3883 6.81037 25.9237 6.59975C26.5848 6.35088 27.2879 6.23287 27.994 6.25225C28.815 6.25817 29.6301 6.39065 30.4107 6.64503C30.48 6.66231 30.543 6.69902 30.5921 6.75088C30.6247 6.79994 30.6407 6.85826 30.6374 6.91711V8.00464C30.6423 8.0349 30.6396 8.06589 30.6296 8.0949C30.6197 8.1239 30.6027 8.15003 30.5802 8.17093C30.5578 8.19184 30.5307 8.20688 30.5011 8.21476C30.4715 8.22264 30.4402 8.2231 30.4104 8.2161C30.1282 8.17666 29.8211 8.14639 29.489 8.1253C29.157 8.1042 28.8196 8.09435 28.4769 8.09573C28.0629 8.08412 27.6506 8.15077 27.2613 8.29213C26.9422 8.41683 26.6664 8.63211 26.4681 8.91146C26.2509 9.23191 26.1042 9.59483 26.0378 9.97621C25.9454 10.4769 25.9024 10.9854 25.9092 11.4944V11.9626C25.9023 12.4719 25.9478 12.9805 26.045 13.4804C26.1156 13.8609 26.2676 14.2216 26.4906 14.5378C26.6966 14.8141 26.9769 15.0263 27.2988 15.1494C27.6858 15.2896 28.0955 15.3562 28.507 15.3458L28.5067 15.3464ZM32.54 6.67636C32.54 6.51517 32.615 6.43472 32.7664 6.43472H34.6392C34.672 6.43002 34.7057 6.43305 34.7371 6.44353C34.7686 6.45401 34.7971 6.47167 34.8206 6.49512C34.844 6.51857 34.8615 6.54713 34.872 6.57859C34.8825 6.61005 34.8857 6.64354 34.881 6.67636V14.4846C34.8642 14.7118 34.9169 14.9387 35.032 15.1352C35.1115 15.2165 35.2089 15.2781 35.3165 15.3148C35.4241 15.3515 35.5387 15.3624 35.6513 15.3467H39.2302C39.263 15.342 39.2964 15.345 39.3278 15.3555C39.3593 15.366 39.3879 15.3837 39.4113 15.4071C39.4348 15.4306 39.4525 15.4592 39.463 15.4906C39.4735 15.5221 39.4764 15.5555 39.4717 15.5884V16.7061C39.4717 16.8973 39.3863 16.998 39.2152 17.008C38.6615 17.0583 38.0269 17.1011 37.3118 17.1364C36.5966 17.1717 35.8565 17.1894 35.0912 17.1894C34.6875 17.1967 34.2841 17.1561 33.89 17.0684C33.5987 17.0056 33.3268 16.8738 33.0971 16.6839C32.8912 16.5004 32.7418 16.2621 32.6665 15.9968C32.5736 15.6574 32.5306 15.3063 32.5385 14.9545L32.54 6.67636ZM43.2184 16.751C43.2234 16.7859 43.2203 16.8215 43.2092 16.8549C43.198 16.8883 43.1792 16.9187 43.1543 16.9436C43.1294 16.9685 43.0991 16.9873 43.0656 16.9984C43.0322 17.0095 42.9968 17.0127 42.9619 17.0078H41.1339C41.099 17.0127 41.0637 17.0095 41.0302 16.9984C40.9968 16.9873 40.9665 16.9685 40.9416 16.9436C40.9166 16.9187 40.8978 16.8883 40.8867 16.8549C40.8755 16.8215 40.8721 16.7859 40.8771 16.751V6.70651C40.8771 6.52531 40.9628 6.43472 41.1339 6.43472H42.9619C43.1333 6.43472 43.2186 6.52531 43.2184 6.70651V16.751ZM50.2873 15.3461C50.6703 15.3461 51.0229 15.3385 51.345 15.3233C51.6672 15.3082 51.9995 15.2754 52.3418 15.2251C52.3717 15.2181 52.4026 15.2186 52.4322 15.2265C52.4618 15.2344 52.4892 15.2494 52.5116 15.2703C52.5341 15.2913 52.5511 15.3173 52.561 15.3463C52.571 15.3753 52.5734 15.4064 52.5685 15.4366V16.5694C52.5685 16.7003 52.4881 16.791 52.3268 16.8412C51.9326 16.9632 51.528 17.0491 51.1183 17.0979C50.6827 17.1564 50.2439 17.1867 49.8044 17.1885C49.0983 17.2078 48.3952 17.0897 47.734 16.8409C47.1973 16.6291 46.7239 16.2828 46.3595 15.8353C45.99 15.3609 45.7278 14.8121 45.5906 14.2266C45.4213 13.5197 45.34 12.7945 45.3489 12.0676V11.3728C45.3401 10.6463 45.4187 9.92143 45.5831 9.21373C45.7155 8.62915 45.9734 8.0803 46.3387 7.60507C46.6992 7.1567 47.1704 6.81008 47.7057 6.59946C48.3668 6.35062 49.07 6.23258 49.7761 6.25192C50.5972 6.25789 51.4124 6.39037 52.1931 6.6447C52.2622 6.66205 52.3248 6.69879 52.3739 6.75059C52.4065 6.79965 52.4225 6.85797 52.4192 6.91682V8.00435C52.4242 8.0346 52.4216 8.0656 52.4117 8.09461C52.4018 8.12362 52.385 8.14973 52.3626 8.17064C52.3402 8.19156 52.3128 8.20663 52.2832 8.21451C52.2536 8.22239 52.2226 8.22283 52.1928 8.21581C51.9106 8.17637 51.6033 8.14611 51.2711 8.12501C50.9389 8.10391 50.6016 8.09406 50.2593 8.09544C49.8452 8.0838 49.4325 8.15045 49.043 8.29185C48.724 8.41654 48.4484 8.63182 48.2502 8.91118C48.0332 9.23175 47.8865 9.59461 47.8198 9.97592C47.7277 10.4766 47.6846 10.985 47.6913 11.4941V11.9623C47.6843 12.4715 47.7297 12.9802 47.8268 13.4802C47.8973 13.8607 48.0497 14.2214 48.273 14.5375C48.4788 14.814 48.7589 15.0261 49.0809 15.1491C49.4678 15.2893 49.8774 15.3559 50.2888 15.3456L50.2873 15.3461ZM61.9031 6.43443C61.9366 6.43119 61.9702 6.43808 61.9998 6.45422C62.0294 6.47035 62.0536 6.49498 62.0691 6.52494C62.0837 6.55705 62.0885 6.59264 62.0833 6.62748C62.078 6.66232 62.063 6.69491 62.0397 6.72131L58.8071 11.5245L62.4625 16.7356C62.4821 16.7596 62.4944 16.7886 62.4983 16.8193C62.5023 16.8499 62.4978 16.8811 62.4851 16.9093C62.4709 16.9424 62.4462 16.9699 62.4149 16.9877C62.3835 17.0054 62.3472 17.0123 62.3115 17.0074H60.1819C60.094 17.0118 60.0062 16.9963 59.9251 16.9622C59.8555 16.9232 59.7982 16.8657 59.7593 16.796L56.6625 12.0833V16.7504C56.6674 16.7853 56.6644 16.8208 56.6532 16.8542C56.6421 16.8876 56.6232 16.918 56.5983 16.9429C56.5734 16.9678 56.5431 16.9865 56.5097 16.9977C56.4763 17.0088 56.4408 17.0121 56.406 17.0071H54.5777C54.5428 17.0121 54.5074 17.0089 54.474 16.9977C54.4406 16.9866 54.4102 16.9678 54.3853 16.9429C54.3604 16.918 54.3418 16.8876 54.3307 16.8542C54.3196 16.8208 54.3162 16.7853 54.3212 16.7504V6.70593C54.3212 6.52473 54.4067 6.43414 54.5777 6.43414H56.406C56.5769 6.43414 56.6623 6.52473 56.6625 6.70593V10.965L59.5473 6.61484C59.586 6.55846 59.6381 6.51244 59.6987 6.48082C59.7593 6.44921 59.8267 6.43295 59.8951 6.43353L61.9031 6.43443Z" fill="black"></path><path d="M81.76 4.71366C81.5514 4.376 81.2794 4.08192 80.959 3.84768C80.6354 3.62641 80.2808 3.45424 79.9068 3.33674C79.5005 3.2038 79.0809 3.11524 78.6555 3.07262C78.1576 3.02409 77.6576 3.00096 77.1573 3.00334H72.8274C72.727 2.99386 72.6258 3.00462 72.5296 3.03498C72.4335 3.06534 72.3444 3.11469 72.2677 3.1801C72.191 3.24551 72.1282 3.32565 72.083 3.41578C72.0378 3.50591 72.0112 3.60418 72.0047 3.70479C72.0047 3.70479 72.0047 3.73077 72.0047 3.74376V10.7756C72.605 12.0637 73.6019 13.1259 74.8495 13.8065V12.395C74.84 12.2861 74.852 12.1763 74.885 12.0721C74.9179 11.9679 74.9711 11.8711 75.0415 11.7875C75.1119 11.7038 75.1981 11.6349 75.2952 11.5846C75.3922 11.5343 75.4983 11.5036 75.6072 11.4943H76.9062C78.6786 11.4943 80.0309 11.1234 80.9633 10.3816C81.8957 9.63969 82.3691 8.53988 82.3835 7.08214C82.3851 6.66204 82.3356 6.24331 82.2363 5.83512C82.1373 5.43864 81.9766 5.0602 81.76 4.71366V4.71366ZM79.2227 8.32916C79.0717 8.589 78.8472 8.7984 78.5775 8.93102C78.2853 9.07059 77.9696 9.1543 77.6466 9.17783C77.2918 9.22201 76.9346 9.2437 76.5771 9.24278H75.3301C75.0313 9.24278 74.8451 9.0003 74.8451 8.64525V5.74419C74.8408 5.68054 74.8506 5.61672 74.8739 5.5573C74.8971 5.49788 74.9332 5.44433 74.9795 5.40048C75.0258 5.35663 75.0813 5.32355 75.1419 5.30363C75.2025 5.2837 75.2668 5.27741 75.3301 5.28522H76.5771C76.9812 5.28522 77.3623 5.29676 77.7202 5.31985C78.0392 5.33516 78.3523 5.4116 78.6425 5.54501C78.9095 5.66388 79.1322 5.86387 79.279 6.11656C79.4448 6.45539 79.5208 6.83109 79.4998 7.20771C79.5082 7.59808 79.4126 7.98365 79.2227 8.32483V8.32916ZM74.8538 14.2309C73.786 13.8456 72.8141 13.2341 72.0047 12.4383V15.8373C71.9956 15.902 71.9997 15.9679 72.0168 16.031C72.0338 16.0942 72.0635 16.1532 72.1039 16.2045C72.1444 16.2559 72.1948 16.2986 72.2522 16.33C72.3095 16.3613 72.3726 16.3808 72.4377 16.3872H74.3948C74.9144 16.3872 74.8538 15.8329 74.8538 15.8329V14.2309ZM101.751 6.70543H100.063C99.9015 6.69489 99.7418 6.74171 99.6119 6.8376C99.4819 6.93348 99.39 7.07226 99.3526 7.22936L97.3911 12.6331C97.3911 12.6331 95.6591 7.70998 95.5292 7.32895C95.4927 7.15313 95.3973 6.99505 95.2587 6.88088C95.1201 6.7667 94.9467 6.70328 94.7672 6.7011H93.2127C92.6585 6.7011 92.6585 7.1341 92.7321 7.30297C92.8057 7.47183 94.9317 13.2999 95.7631 15.5298C95.894 15.8044 95.9858 16.0958 96.0358 16.3958C95.9819 16.6919 95.8701 16.9744 95.7068 17.2272C95.6436 17.3343 95.5711 17.4357 95.4903 17.5303C97.0923 17.054 98.9542 15.3177 99.8895 13.4428C100.833 10.8449 102.076 7.3809 102.132 7.20338C102.193 6.93059 102.193 6.70543 101.751 6.70543ZM94.2259 18.0585C94.0811 18.0546 93.9365 18.0431 93.7929 18.0239C93.6154 17.9979 93.2777 18.0239 93.2777 18.327V19.626C93.2777 20.1239 93.5201 20.1585 93.6457 20.1932C94.0467 20.2812 94.4562 20.3247 94.8668 20.3231C95.3519 20.3358 95.8334 20.2366 96.274 20.033C96.677 19.8294 97.0349 19.5466 97.3262 19.2016C97.6565 18.824 97.9359 18.4047 98.1575 17.9546C98.3971 17.4754 98.6251 16.9457 98.8416 16.3655L99.0928 15.6771C98.5905 16.175 96.3736 18.2664 94.2259 18.0585ZM91.6713 8.25988C91.5793 8.04108 91.4536 7.83801 91.2989 7.65802C91.1424 7.49129 90.9648 7.34573 90.7706 7.22503C90.5609 7.08217 90.3375 6.96035 90.1038 6.86131C89.8659 6.76911 89.6213 6.69529 89.3721 6.64049C89.0869 6.5774 88.7974 6.53543 88.5061 6.51492C88.1943 6.48316 87.845 6.46729 87.4582 6.46729C84.8776 6.46729 83.4083 7.28132 83.0504 8.90937C83.0351 8.97005 83.0331 9.03333 83.0447 9.09483C83.0562 9.15633 83.0809 9.2146 83.1171 9.26563C83.1534 9.31666 83.2002 9.35924 83.2545 9.39042C83.3087 9.42161 83.3691 9.44067 83.4314 9.44628H85.0205C85.4535 9.44628 85.4535 9.31206 85.618 8.93968C85.6901 8.73695 85.8195 8.55948 85.9904 8.42875C86.3964 8.16666 86.8766 8.04358 87.3586 8.07802C87.8082 8.03208 88.2597 8.14382 88.636 8.39411C88.923 8.662 89.0926 9.03235 89.1079 9.42463C89.1079 9.96155 88.9434 10.3166 88.2766 10.3166C86.6962 10.2603 84.9988 10.4378 84.0419 10.9877C83.5709 11.2753 83.1842 11.6822 82.9211 12.1674C82.658 12.6525 82.5278 13.1986 82.5438 13.7502C82.5329 14.1799 82.6202 14.6065 82.7992 14.9973C82.9678 15.3369 83.2123 15.6332 83.5137 15.8633C83.83 16.1213 84.1953 16.3127 84.5875 16.4261C85.0306 16.5461 85.4881 16.6044 85.9471 16.5993C86.5646 16.6089 87.1798 16.5213 87.77 16.3395C88.2917 16.1258 88.7847 15.848 89.2378 15.5125V15.8156C89.2378 16.1144 89.3288 16.3828 89.6708 16.3828H91.5111C91.8834 16.3828 91.97 16.1187 91.97 15.7896V10.1218C91.9722 9.76823 91.9476 9.41505 91.8964 9.06525C91.8556 8.78839 91.7799 8.51779 91.6713 8.25988V8.25988ZM89.1556 13.8282C89.1556 13.8282 88.6793 14.8241 86.9906 14.8241C86.5857 14.8427 86.1853 14.732 85.8475 14.508C85.6988 14.3925 85.5813 14.2417 85.5057 14.0693C85.4301 13.8969 85.3987 13.7084 85.4145 13.5208C85.3959 13.2688 85.4542 13.0172 85.5818 12.7991C85.7094 12.5811 85.9002 12.4069 86.1289 12.2997C86.812 12.0373 87.5409 11.9151 88.2723 11.9403C88.3842 11.9234 88.4984 11.931 88.6071 11.9625C88.7158 11.9939 88.8164 12.0486 88.902 12.1227C88.9876 12.1967 89.0561 12.2884 89.1029 12.3915C89.1497 12.4946 89.1735 12.6065 89.1729 12.7197L89.1556 13.8282Z" fill="#333333"></path><path d="M131.238 10.1825C131.452 10.5256 131.565 10.9215 131.565 11.3256C131.565 11.7296 131.452 12.1255 131.238 12.4687C130.805 13.1268 128.445 15.6468 127.666 16.4565C126.991 17.158 126.077 17.8681 125.172 17.8681H106.428C103.89 17.8681 103.739 17.0021 103.739 15.071V7.1948C103.739 5.21602 104.323 4.64014 106.06 4.64014H125.215C126.112 4.64014 126.913 5.09911 127.813 6.02572C128.601 6.81809 130.926 9.71482 131.238 10.1825Z" fill="#33CCCC"></path><path d="M107.995 7.68406V7.63643C107.995 7.38096 107.995 7.13416 107.562 7.13416H105.99C105.622 7.13416 105.605 7.33333 105.605 7.64509V9.72346C106.225 8.86031 107.045 8.1605 107.995 7.68406V7.68406Z" fill="white"></path><path d="M118.521 15.2008V15.0882V10.0741C118.521 7.97556 117.594 6.92627 115.741 6.92627C115.225 6.93238 114.722 7.08234 114.286 7.35926C113.807 7.65838 113.378 8.03264 113.018 8.46773C112.854 7.99748 112.537 7.59618 112.117 7.32895C111.639 7.06571 111.099 6.93842 110.554 6.96091C109.753 6.96393 108.975 7.23186 108.341 7.72298C108.203 7.86154 105.601 9.88795 105.601 12.001V15.2094C105.601 15.309 105.549 15.6987 105.986 15.6987H107.618C108.125 15.6987 108.077 15.3653 108.077 15.2268V10.0308C108.35 9.66279 108.909 8.78381 109.831 8.78381C109.978 8.77039 110.127 8.79663 110.261 8.85981C110.395 8.923 110.509 9.02083 110.593 9.1432C110.778 9.51287 110.859 9.92605 110.827 10.3383V14.3867V15.2181C110.827 15.3177 110.775 15.7074 111.212 15.7074H112.827C113.334 15.7074 113.286 15.374 113.286 15.2354V15.1228V10.0135C113.581 9.64547 114.152 8.76649 115.04 8.76649C115.189 8.75428 115.339 8.78097 115.475 8.84396C115.611 8.90694 115.728 9.00408 115.815 9.12588C116.003 9.49462 116.085 9.90824 116.053 10.3209V14.3694V15.2008C116.053 15.3004 116.001 15.6901 116.438 15.6901H118.071C118.582 15.6641 118.521 15.335 118.521 15.2008Z" fill="white"></path><path d="M127.523 13.1614C127.246 13.9073 126.738 14.5451 126.072 14.982C125.407 15.4189 124.62 15.6321 123.825 15.5905C121.331 15.5905 119.669 13.8932 119.669 11.3471C119.669 8.80115 121.401 7.01721 123.739 7.01721C126.077 7.01721 127.636 8.63661 127.735 11.2476C127.735 11.581 127.653 11.8754 127.233 11.8754H121.942C121.977 13.274 122.648 14.0404 123.843 14.0404C124.16 14.0483 124.473 13.9653 124.745 13.8011C125.016 13.6369 125.235 13.3984 125.376 13.1138C125.431 13.0332 125.505 12.9677 125.592 12.9231C125.679 12.8785 125.776 12.8562 125.874 12.8583H127.237C127.278 12.8564 127.319 12.8637 127.357 12.8797C127.395 12.8957 127.428 12.92 127.455 12.9508C127.482 12.9815 127.502 13.018 127.513 13.0575C127.524 13.0969 127.526 13.1384 127.519 13.1787L127.523 13.1614ZM123.748 8.63228C122.756 8.63228 122.085 9.32074 121.938 10.4552H125.488C125.397 9.46363 124.86 8.63228 123.748 8.63228Z" fill="white"></path></svg> 